<svg xmlns="http://www.w3.org/2000/svg" width="24" height="24" viewBox="0 0 24 24"><path fill="currentColor" fill-rule="evenodd" d="M2 8c0-2.828 0-4.243.879-5.121C3.757 2 5.172 2 8 2h8c2.828 0 4.243 0 5.121.879C22 3.757 22 5.172 22 8c0 2.828 0 4.243-.879 5.121C20.243 14 18.828 14 16 14H8c-2.828 0-4.243 0-5.121-.879C2 12.243 2 10.828 2 8m4 0a1 1 0 1 0 0-2a1 1 0 0 0 0 2m4 0a1 1 0 1 0 0-2a1 1 0 0 0 0 2m9 0a1 1 0 1 1-2 0a1 1 0 0 1 2 0m-5 8a1 1 0 1 0 0-2a1 1 0 0 0 0 2" clip-rule="evenodd"/><path fill="currentColor" d="M11 22h2c2.828 0 4.243 0 5.121-.879C19 20.243 19 18.828 19 16H5c0 2.828 0 4.243.879 5.121C6.757 22 8.172 22 11 22" opacity=".5"/></svg>
